<svg width="199" height="199" viewBox="0 0 199 199" fill="none" xmlns="http://www.w3.org/2000/svg">
<g clip-path="url(#clip0_612_6475)">
<path d="M164.159 0.51416H34.8411C15.5989 0.51416 0 16.0778 0 35.2765V164.302C0 183.501 15.5989 199.064 34.8411 199.064H164.159C183.401 199.064 199 183.501 199 164.302V35.2765C199 16.0778 183.401 0.51416 164.159 0.51416Z" fill="#655FEC"/>
<path d="M96.2798 199V170.213" stroke="#BFA2CC" stroke-width="2" stroke-miterlimit="10"/>
<path d="M199 70.9382H173.497" stroke="#BFA2CC" stroke-width="2" stroke-miterlimit="10"/>
<path d="M199 95.0984H153.339" stroke="#BFA2CC" stroke-width="2" stroke-miterlimit="10"/>
<path d="M129.704 199V147.981" stroke="#BFA2CC" stroke-width="2" stroke-miterlimit="10"/>
<path d="M97.3105 25.381V0" stroke="#BFA2CC" stroke-width="2" stroke-miterlimit="10"/>
<path d="M131.701 0.706787V37.6538H153.34" stroke="#BFA2CC" stroke-width="2" stroke-miterlimit="10"/>
<path d="M58.4766 10.4737V0.706787" stroke="#BFA2CC" stroke-width="2" stroke-miterlimit="10"/>
<path d="M171.501 73.5729C172.959 73.5729 174.141 72.3934 174.141 70.9384C174.141 69.4835 172.959 68.304 171.501 68.304C170.043 68.304 168.86 69.4835 168.86 70.9384C168.86 72.3934 170.043 73.5729 171.501 73.5729Z" fill="#BFA2CC"/>
<path d="M155.078 40.224C156.537 40.224 157.719 39.0445 157.719 37.5896C157.719 36.1346 156.537 34.9551 155.078 34.9551C153.62 34.9551 152.438 36.1346 152.438 37.5896C152.438 39.0445 153.62 40.224 155.078 40.224Z" fill="#BFA2CC"/>
<path d="M151.472 97.7331C152.93 97.7331 154.112 96.5536 154.112 95.0986C154.112 93.6436 152.93 92.4641 151.472 92.4641C150.014 92.4641 148.832 93.6436 148.832 95.0986C148.832 96.5536 150.014 97.7331 151.472 97.7331Z" fill="#BFA2CC"/>
<path d="M129.704 149.009C131.163 149.009 132.345 147.829 132.345 146.374C132.345 144.919 131.163 143.74 129.704 143.74C128.246 143.74 127.064 144.919 127.064 146.374C127.064 147.829 128.246 149.009 129.704 149.009Z" fill="#BFA2CC"/>
<path d="M58.4764 14.6503C59.9347 14.6503 61.1168 13.4708 61.1168 12.0158C61.1168 10.5608 59.9347 9.38135 58.4764 9.38135C57.0181 9.38135 55.8359 10.5608 55.8359 12.0158C55.8359 13.4708 57.0181 14.6503 58.4764 14.6503Z" fill="#BFA2CC"/>
<path d="M97.3104 30.1359C98.7687 30.1359 99.9508 28.9564 99.9508 27.5014C99.9508 26.0464 98.7687 24.8669 97.3104 24.8669C95.8521 24.8669 94.6699 26.0464 94.6699 27.5014C94.6699 28.9564 95.8521 30.1359 97.3104 30.1359Z" fill="#BFA2CC"/>
<path d="M96.2801 171.242C97.7384 171.242 98.9206 170.062 98.9206 168.607C98.9206 167.152 97.7384 165.973 96.2801 165.973C94.8218 165.973 93.6396 167.152 93.6396 168.607C93.6396 170.062 94.8218 171.242 96.2801 171.242Z" fill="#BFA2CC"/>
<path d="M21.7034 107.885C20.0934 106.922 18.8054 105.572 17.9681 103.837C17.1309 102.102 16.6157 99.982 16.6157 97.5403C16.6157 95.0985 17.0665 92.9781 17.9681 91.2432C18.8698 89.5083 20.0934 88.1589 21.7034 87.2593C23.3135 86.2955 25.2455 85.8457 27.4351 85.8457C29.3028 85.8457 30.9128 86.2312 32.3296 86.9381C33.7465 87.6449 34.9057 88.6087 35.8073 89.8938C36.7089 91.1789 37.1597 92.5926 37.3529 94.1347V94.2632H32.716V94.0062C32.4584 93.1709 32.1364 92.464 31.6856 91.8215C31.2348 91.1789 30.6552 90.7291 29.9468 90.4079C29.2384 90.0866 28.4012 89.8938 27.4351 89.8938C26.2115 89.8938 25.1811 90.2151 24.2795 90.8577C23.3779 91.5002 22.6694 92.3355 22.2186 93.4921C21.7034 94.6487 21.5102 95.9981 21.5102 97.5403C21.5102 99.1466 21.7678 100.496 22.2186 101.653C22.7338 102.809 23.3779 103.709 24.2795 104.351C25.1811 104.994 26.2115 105.315 27.4351 105.315C28.3368 105.315 29.174 105.122 29.8824 104.801C30.5908 104.48 31.1704 103.966 31.6856 103.323C32.1364 102.681 32.5228 101.91 32.716 101.01V100.882H37.3529V101.074C37.2241 102.681 36.7089 104.094 35.8073 105.315C34.9057 106.536 33.7465 107.564 32.3296 108.271C30.9128 108.978 29.2384 109.299 27.4351 109.299C25.2455 109.299 23.3135 108.849 21.7034 107.885Z" fill="white"/>
<path d="M43.2136 108.207C41.99 107.5 41.024 106.536 40.3156 105.187C39.6072 103.902 39.2852 102.295 39.2852 100.496C39.2852 98.6327 39.6072 97.0906 40.3156 95.8054C41.024 94.5203 41.99 93.4922 43.2136 92.7854C44.4373 92.0786 45.9185 91.7573 47.5929 91.7573C49.2674 91.7573 50.7486 92.0786 51.9722 92.7854C53.1958 93.4922 54.2263 94.4561 54.8703 95.8054C55.5787 97.0906 55.9007 98.6969 55.9007 100.496C55.9007 102.36 55.5787 103.902 54.8703 105.251C54.1619 106.6 53.1958 107.564 51.9722 108.271C50.7486 108.978 49.2674 109.299 47.5285 109.299C45.7897 109.299 44.3085 108.978 43.0848 108.271L43.2136 108.207ZM49.5894 105.058C50.1046 104.673 50.5554 104.094 50.8774 103.323C51.1994 102.552 51.3282 101.653 51.3282 100.496C51.3282 99.4038 51.1994 98.4399 50.8774 97.6689C50.5554 96.8978 50.169 96.3195 49.5894 95.934C49.0098 95.5484 48.3657 95.3556 47.6573 95.3556C46.9489 95.3556 46.3049 95.5484 45.7253 95.9982C45.1457 96.3837 44.7593 96.962 44.4373 97.7331C44.1153 98.5042 43.9865 99.4038 43.9865 100.496C43.9865 101.653 44.1153 102.552 44.4373 103.323C44.7593 104.094 45.1457 104.673 45.7253 105.058C46.3049 105.444 46.9489 105.637 47.6573 105.637C48.3657 105.637 49.0742 105.444 49.5894 105.058Z" fill="white"/>
<path d="M60.4085 108.528C59.5713 108.078 58.8628 107.5 58.412 106.729C57.9612 105.958 57.7036 105.058 57.7036 104.094C57.7036 103.066 57.9612 102.167 58.4764 101.46C58.9916 100.753 59.7645 100.175 60.7305 99.725C61.6965 99.2752 62.9201 99.0825 64.2725 98.954L70.8415 98.5684V101.396L64.981 101.781C64.0793 101.781 63.4353 102.038 62.9845 102.424C62.5337 102.809 62.2761 103.259 62.2761 103.837C62.2761 104.48 62.5337 104.994 62.9845 105.315C63.4353 105.637 64.0793 105.829 64.8522 105.829C65.5606 105.829 66.1402 105.701 66.7198 105.444C67.235 105.187 67.6858 104.801 68.0078 104.351C68.3298 103.902 68.4586 103.388 68.4586 102.809V97.6689C68.4586 96.8978 68.201 96.3195 67.7502 95.934C67.2994 95.4842 66.591 95.2914 65.6894 95.2914C64.7878 95.2914 64.1437 95.4842 63.6285 95.8054C63.1133 96.1267 62.7913 96.5765 62.7269 97.1548V97.2833H58.4764V97.0905C58.6052 96.0625 58.9272 95.1629 59.5713 94.3276C60.2153 93.4922 60.9881 92.9139 62.0829 92.4641C63.1777 92.0144 64.4657 91.7573 65.8826 91.7573C67.2994 91.7573 68.5874 92.0144 69.6823 92.4641C70.7771 92.9139 71.6143 93.5565 72.1939 94.4561C72.7735 95.3556 73.0955 96.3195 73.0955 97.4118V108.914H68.523V106.408H68.4586C68.1366 106.986 67.7502 107.436 67.235 107.886C66.7198 108.335 66.2046 108.592 65.5606 108.849C64.9166 109.106 64.2725 109.171 63.4997 109.171C62.4049 109.171 61.3745 108.978 60.5373 108.528H60.4085Z" fill="white"/>
<path d="M79.2136 108.207C77.99 107.5 77.024 106.472 76.3156 105.187C75.6072 103.901 75.2852 102.295 75.2852 100.496C75.2852 98.6967 75.6072 97.1546 76.3156 95.8052C77.024 94.5201 77.9256 93.492 79.2136 92.7852C80.4373 92.0784 81.9185 91.6929 83.5929 91.6929C85.1386 91.6929 86.4266 91.9499 87.5858 92.5282C88.6806 93.1065 89.5822 93.8776 90.2263 94.8414C90.8703 95.8052 91.1923 96.8976 91.2567 98.1184V98.247H87.0062V98.1184C86.8774 97.3474 86.491 96.6406 85.9758 96.1265C85.4606 95.6125 84.6877 95.2912 83.7217 95.2912C82.9489 95.2912 82.3049 95.484 81.7897 95.9337C81.2745 96.3193 80.8237 96.9618 80.5017 97.7329C80.1797 98.504 80.0509 99.4036 80.0509 100.496C80.0509 101.588 80.1797 102.552 80.5017 103.323C80.8237 104.094 81.2101 104.673 81.7897 105.058C82.3693 105.444 83.0133 105.636 83.7217 105.636C84.6233 105.636 85.3962 105.379 85.9114 104.865C86.491 104.351 86.813 103.644 87.0062 102.809V102.681H91.3211C91.2567 104.03 90.8703 105.122 90.2263 106.086C89.5822 107.05 88.6806 107.821 87.5858 108.399C86.491 108.978 85.1386 109.235 83.6573 109.235C81.9829 109.235 80.5017 108.849 79.2136 108.142V108.207Z" fill="white"/>
<path d="M93.6396 86.2954H98.2121V95.0342H98.2765C98.7274 94.0061 99.3714 93.1708 100.273 92.6567C101.175 92.0784 102.205 91.8214 103.493 91.8214C104.781 91.8214 105.747 92.0784 106.649 92.6567C107.55 93.1708 108.194 93.9418 108.71 94.9057C109.225 95.8695 109.418 97.0904 109.418 98.4397V108.978H104.845V99.3393C104.845 98.1827 104.588 97.2189 104.008 96.5763C103.429 95.9338 102.656 95.5482 101.625 95.5482C100.981 95.5482 100.337 95.6767 99.8866 95.998C99.3714 96.3193 98.985 96.7691 98.7274 97.3474C98.4697 97.9257 98.3409 98.5683 98.3409 99.2751V108.913H93.7685V86.2954H93.6396Z" fill="white"/>
<path d="M17.3886 118.423H22.8627L29.3029 134.68H29.3673L35.8074 118.423H41.2815V141.041H37.031V125.748H34.8414L39.6071 119.066L30.7841 141.106H27.8216L18.9987 119.066L23.7643 125.748H21.5747V141.041H17.3242V118.423H17.3886Z" fill="white"/>
<path d="M47.9149 140.334C46.6912 139.628 45.7252 138.6 45.0812 137.314C44.4372 136.029 44.0508 134.487 44.0508 132.688C44.0508 130.889 44.3728 129.347 45.0812 127.997C45.7252 126.712 46.6912 125.684 47.9149 124.977C49.1385 124.271 50.5553 123.885 52.2297 123.885C53.9042 123.885 55.321 124.206 56.4802 124.913C57.7039 125.62 58.6055 126.584 59.2495 127.869C59.8935 129.154 60.2155 130.632 60.2155 132.303V133.716H46.3048V130.825H58.0259L55.8362 133.523V131.724C55.8362 130.76 55.7074 129.925 55.3854 129.282C55.0634 128.64 54.677 128.126 54.0974 127.805C53.5178 127.483 52.9382 127.291 52.2297 127.291C51.5213 127.291 50.8773 127.483 50.3621 127.805C49.7825 128.126 49.3961 128.64 49.0741 129.347C48.7521 129.989 48.6233 130.825 48.6233 131.788V133.588C48.6233 134.487 48.7521 135.323 49.0741 135.965C49.3961 136.608 49.8469 137.122 50.4265 137.507C51.0061 137.828 51.7145 138.021 52.4873 138.021C53.1314 138.021 53.6466 137.893 54.0974 137.7C54.5482 137.507 54.9346 137.25 55.2566 136.929C55.5786 136.608 55.7718 136.286 55.8362 136.029L60.0223 135.965V136.158C59.8291 136.8 59.6359 137.379 59.2495 138.021C58.8631 138.664 58.4123 139.242 57.7683 139.756C57.1242 140.27 56.4158 140.72 55.5142 141.041C54.6126 141.363 53.5822 141.491 52.3585 141.491C50.6197 141.491 49.1385 141.17 47.9149 140.399V140.334Z" fill="white"/>
<path d="M66.3332 139.949C67.5425 139.949 68.5228 138.971 68.5228 137.764C68.5228 136.558 67.5425 135.58 66.3332 135.58C65.1239 135.58 64.1436 136.558 64.1436 137.764C64.1436 138.971 65.1239 139.949 66.3332 139.949Z" fill="white"/>
</g>
<defs>
<clipPath id="clip0_612_6475">
<rect width="199" height="199" fill="white"/>
</clipPath>
</defs>
</svg>
