<svg width="224" height="285" viewBox="0 0 224 285" fill="none" xmlns="http://www.w3.org/2000/svg">
<rect x="29.9404" y="183.774" width="28.0695" height="7.80747" rx="3.90374" transform="rotate(157.996 29.9404 183.774)" fill="#655FEC"/>
<rect x="27.9321" y="162.938" width="28.0695" height="7.80747" rx="3.90374" transform="rotate(-144.519 27.9321 162.938)" fill="#655FEC"/>
<path d="M132.49 285C178.627 285 216 282.317 216 279C216 275.702 178.606 273 132.49 273C86.3734 273 49.0003 275.702 49.0003 279C49.0003 282.298 86.3525 285 132.49 285Z" fill="#655FEC"/>
<path d="M213.48 137.728L88.4443 262.763C103.634 263.827 114.589 264.077 130.962 264.077C182.221 264.077 216.172 279.353 223.653 184.665C225 167.629 221.102 151.604 213.491 137.717L213.48 137.728Z" fill="#293E4F"/>
<path d="M209.679 131.441L212.122 128.673C217.529 122.538 217.367 113.429 212.046 107.49C216.335 98.3476 218.713 88.3478 218.713 77.8486C218.713 34.8527 179.05 0 130.126 0C81.2022 0 41.5396 34.8527 41.5396 77.8486C41.5396 88.4564 43.9608 98.5648 48.3364 107.772C44.9705 113.548 45.4808 121.072 50.1496 126.36L54.1234 130.866C43.9499 146.197 38 164.72 38 184.676C38 216.347 47.5546 259.43 76.0448 261.808C80.5507 262.188 84.6223 262.503 88.4441 262.763L213.48 137.728C212.296 135.578 211.037 133.483 209.69 131.441H209.679ZM130.539 28.8376C164.751 28.1862 193.328 57.8055 194.479 92.6148C188.04 89.4227 180.017 90.769 175.033 96.4258L172.699 99.0642C159.908 92.7234 145.587 89.1404 130.81 89.1404C116.033 89.1404 100.757 93.0383 87.923 99.9328L84.72 96.3064C80.073 91.0405 72.7876 89.5096 66.5988 91.9199C68.108 57.4255 96.533 28.197 130.517 28.8485L130.539 28.8376Z" fill="#31465A"/>
</svg>
