<svg width="214" height="374" viewBox="0 0 214 374" fill="none" xmlns="http://www.w3.org/2000/svg">
<rect x="154.464" y="26.7275" width="24.2766" height="6.7525" rx="3.37625" transform="rotate(-86.9865 154.464 26.7275)" fill="#655FEC"/>
<rect x="171.529" y="32.7749" width="24.2766" height="6.7525" rx="3.37625" transform="rotate(-29.5013 171.529 32.7749)" fill="#655FEC"/>
<path d="M30.3729 287.664C21.4737 236.018 23.6788 194.896 27.0783 168.003C31.5279 132.843 39.0226 113.922 53.7233 103.374C56.4272 101.434 67.1246 94.8135 78.872 96.9536C100.083 100.822 115.5 117.437 111 151.5C111 158.937 103.732 177.093 92.1551 185.006C69.3822 200.576 17.5885 175.129 7.02238 141.897C-0.419839 118.496 11.3932 96.5773 13.6114 92.4499C27.8921 65.9329 54.6027 58.9126 68.6996 55.2085C74.0549 53.7974 102.787 46.7184 135.758 60.3473C159.345 70.0956 173.573 85.6766 178.272 91.1681C193.616 109.113 199.615 127.351 202.817 137.405C205.442 145.66 209.275 158.007 209.406 174.647C209.524 189.346 206.702 200.223 204.012 210.606C201.518 220.225 197.252 233.537 189.639 248.494" stroke="#33475A" stroke-width="7" stroke-miterlimit="10"/>
<path d="M24.6263 284.601L35.009 283.363C37.1298 283.11 39.0758 284.444 39.358 286.344L40.7397 295.646C41.0219 297.546 39.533 299.289 37.4122 299.542L27.0295 300.78C24.9087 301.032 22.9627 299.699 22.6805 297.799L21.2989 288.497C21.0166 286.597 22.5055 284.853 24.6263 284.601Z" fill="#C8A1EF"/>
<path d="M17.6933 309.677C20.2922 327.163 22.8779 344.649 25.4768 362.135C28.1675 380.256 59.5378 376.517 56.847 358.396C54.2481 340.91 51.6624 323.424 49.0635 305.938C46.3728 287.817 15.0026 291.556 17.6933 309.677Z" fill="#655FEC"/>
<path d="M175.92 256.599L179.531 247.791C180.269 245.992 182.493 245.07 184.501 245.731L194.333 248.966C196.341 249.627 197.37 251.62 196.632 253.419L193.021 262.227C192.283 264.026 190.059 264.948 188.051 264.287L178.219 261.052C176.211 260.391 175.182 258.398 175.92 256.599Z" fill="#C8A1EF"/>
<path d="M165.317 265.051C158.531 281.608 151.732 298.165 144.933 314.722C137.898 331.879 167.588 341.662 174.636 324.506C181.422 307.949 188.221 291.392 195.007 274.835C202.043 257.678 172.352 247.894 165.304 265.051H165.317Z" fill="#655FEC"/>
</svg>
