<svg width="292" height="292" viewBox="0 0 292 292" fill="none" xmlns="http://www.w3.org/2000/svg">
<circle cx="146" cy="146" r="146" fill="white"/>
<g clip-path="url(#clip0_612_6472)">
<path d="M211.159 46.5142H81.8411C62.5989 46.5142 47 62.0778 47 81.2765V210.302C47 229.501 62.5989 245.064 81.8411 245.064H211.159C230.401 245.064 246 229.501 246 210.302V81.2765C246 62.0778 230.401 46.5142 211.159 46.5142Z" fill="#655FEC"/>
<path d="M143.28 245V216.213" stroke="#BFA2CC" stroke-width="2" stroke-miterlimit="10"/>
<path d="M246 116.938H220.497" stroke="#BFA2CC" stroke-width="2" stroke-miterlimit="10"/>
<path d="M246 141.098H200.339" stroke="#BFA2CC" stroke-width="2" stroke-miterlimit="10"/>
<path d="M176.704 245V193.981" stroke="#BFA2CC" stroke-width="2" stroke-miterlimit="10"/>
<path d="M144.311 71.381V46" stroke="#BFA2CC" stroke-width="2" stroke-miterlimit="10"/>
<path d="M178.701 46.7068V83.6538H200.34" stroke="#BFA2CC" stroke-width="2" stroke-miterlimit="10"/>
<path d="M105.477 56.4737V46.7068" stroke="#BFA2CC" stroke-width="2" stroke-miterlimit="10"/>
<path d="M218.501 119.573C219.959 119.573 221.141 118.393 221.141 116.938C221.141 115.483 219.959 114.304 218.501 114.304C217.043 114.304 215.86 115.483 215.86 116.938C215.86 118.393 217.043 119.573 218.501 119.573Z" fill="#BFA2CC"/>
<path d="M202.078 86.224C203.537 86.224 204.719 85.0445 204.719 83.5896C204.719 82.1346 203.537 80.9551 202.078 80.9551C200.62 80.9551 199.438 82.1346 199.438 83.5896C199.438 85.0445 200.62 86.224 202.078 86.224Z" fill="#BFA2CC"/>
<path d="M198.472 143.733C199.93 143.733 201.112 142.554 201.112 141.099C201.112 139.644 199.93 138.464 198.472 138.464C197.014 138.464 195.832 139.644 195.832 141.099C195.832 142.554 197.014 143.733 198.472 143.733Z" fill="#BFA2CC"/>
<path d="M176.704 195.009C178.163 195.009 179.345 193.829 179.345 192.374C179.345 190.919 178.163 189.74 176.704 189.74C175.246 189.74 174.064 190.919 174.064 192.374C174.064 193.829 175.246 195.009 176.704 195.009Z" fill="#BFA2CC"/>
<path d="M105.476 60.6503C106.935 60.6503 108.117 59.4708 108.117 58.0158C108.117 56.5608 106.935 55.3813 105.476 55.3813C104.018 55.3813 102.836 56.5608 102.836 58.0158C102.836 59.4708 104.018 60.6503 105.476 60.6503Z" fill="#BFA2CC"/>
<path d="M144.31 76.1359C145.769 76.1359 146.951 74.9564 146.951 73.5014C146.951 72.0464 145.769 70.8669 144.31 70.8669C142.852 70.8669 141.67 72.0464 141.67 73.5014C141.67 74.9564 142.852 76.1359 144.31 76.1359Z" fill="#BFA2CC"/>
<path d="M143.28 217.242C144.738 217.242 145.921 216.062 145.921 214.607C145.921 213.152 144.738 211.973 143.28 211.973C141.822 211.973 140.64 213.152 140.64 214.607C140.64 216.062 141.822 217.242 143.28 217.242Z" fill="#BFA2CC"/>
<path d="M68.7034 153.885C67.0934 152.922 65.8054 151.572 64.9681 149.837C64.1309 148.102 63.6157 145.982 63.6157 143.54C63.6157 141.099 64.0665 138.978 64.9681 137.243C65.8698 135.508 67.0934 134.159 68.7034 133.259C70.3135 132.295 72.2455 131.846 74.4351 131.846C76.3028 131.846 77.9128 132.231 79.3296 132.938C80.7465 133.645 81.9057 134.609 82.8073 135.894C83.7089 137.179 84.1597 138.593 84.3529 140.135V140.263H79.716V140.006C79.4584 139.171 79.1364 138.464 78.6856 137.821C78.2348 137.179 77.6552 136.729 76.9468 136.408C76.2384 136.087 75.4012 135.894 74.4351 135.894C73.2115 135.894 72.1811 136.215 71.2795 136.858C70.3779 137.5 69.6694 138.336 69.2186 139.492C68.7034 140.649 68.5102 141.998 68.5102 143.54C68.5102 145.147 68.7678 146.496 69.2186 147.653C69.7338 148.809 70.3779 149.709 71.2795 150.351C72.1811 150.994 73.2115 151.315 74.4351 151.315C75.3368 151.315 76.174 151.122 76.8824 150.801C77.5908 150.48 78.1704 149.966 78.6856 149.323C79.1364 148.681 79.5228 147.91 79.716 147.01V146.882H84.3529V147.074C84.2241 148.681 83.7089 150.094 82.8073 151.315C81.9057 152.536 80.7465 153.564 79.3296 154.271C77.9128 154.978 76.2384 155.299 74.4351 155.299C72.2455 155.299 70.3135 154.849 68.7034 153.885Z" fill="white"/>
<path d="M90.2136 154.207C88.99 153.5 88.024 152.536 87.3156 151.187C86.6072 149.902 86.2852 148.295 86.2852 146.496C86.2852 144.633 86.6072 143.091 87.3156 141.805C88.024 140.52 88.99 139.492 90.2136 138.785C91.4373 138.079 92.9185 137.757 94.5929 137.757C96.2674 137.757 97.7486 138.079 98.9722 138.785C100.196 139.492 101.226 140.456 101.87 141.805C102.579 143.091 102.901 144.697 102.901 146.496C102.901 148.36 102.579 149.902 101.87 151.251C101.162 152.6 100.196 153.564 98.9722 154.271C97.7486 154.978 96.2674 155.299 94.5285 155.299C92.7897 155.299 91.3085 154.978 90.0848 154.271L90.2136 154.207ZM96.5894 151.058C97.1046 150.673 97.5554 150.094 97.8774 149.323C98.1994 148.552 98.3282 147.653 98.3282 146.496C98.3282 145.404 98.1994 144.44 97.8774 143.669C97.5554 142.898 97.169 142.319 96.5894 141.934C96.0098 141.548 95.3657 141.356 94.6573 141.356C93.9489 141.356 93.3049 141.548 92.7253 141.998C92.1457 142.384 91.7593 142.962 91.4373 143.733C91.1153 144.504 90.9865 145.404 90.9865 146.496C90.9865 147.653 91.1153 148.552 91.4373 149.323C91.7593 150.094 92.1457 150.673 92.7253 151.058C93.3049 151.444 93.9489 151.637 94.6573 151.637C95.3657 151.637 96.0742 151.444 96.5894 151.058Z" fill="white"/>
<path d="M107.408 154.528C106.571 154.078 105.863 153.5 105.412 152.729C104.961 151.958 104.704 151.058 104.704 150.094C104.704 149.066 104.961 148.167 105.476 147.46C105.992 146.753 106.764 146.175 107.73 145.725C108.696 145.275 109.92 145.082 111.273 144.954L117.841 144.568V147.396L111.981 147.781C111.079 147.781 110.435 148.038 109.985 148.424C109.534 148.809 109.276 149.259 109.276 149.837C109.276 150.48 109.534 150.994 109.985 151.315C110.435 151.637 111.079 151.829 111.852 151.829C112.561 151.829 113.14 151.701 113.72 151.444C114.235 151.187 114.686 150.801 115.008 150.351C115.33 149.902 115.459 149.388 115.459 148.809V143.669C115.459 142.898 115.201 142.319 114.75 141.934C114.299 141.484 113.591 141.291 112.689 141.291C111.788 141.291 111.144 141.484 110.629 141.805C110.113 142.127 109.791 142.577 109.727 143.155V143.283H105.476V143.091C105.605 142.062 105.927 141.163 106.571 140.328C107.215 139.492 107.988 138.914 109.083 138.464C110.178 138.014 111.466 137.757 112.883 137.757C114.299 137.757 115.587 138.014 116.682 138.464C117.777 138.914 118.614 139.556 119.194 140.456C119.774 141.356 120.096 142.319 120.096 143.412V154.914H115.523V152.408H115.459C115.137 152.986 114.75 153.436 114.235 153.886C113.72 154.335 113.205 154.592 112.561 154.849C111.917 155.106 111.273 155.171 110.5 155.171C109.405 155.171 108.374 154.978 107.537 154.528H107.408Z" fill="white"/>
<path d="M126.214 154.207C124.99 153.5 124.024 152.472 123.316 151.187C122.607 149.901 122.285 148.295 122.285 146.496C122.285 144.697 122.607 143.155 123.316 141.805C124.024 140.52 124.926 139.492 126.214 138.785C127.437 138.078 128.918 137.693 130.593 137.693C132.139 137.693 133.427 137.95 134.586 138.528C135.681 139.106 136.582 139.878 137.226 140.841C137.87 141.805 138.192 142.898 138.257 144.118V144.247H134.006V144.118C133.877 143.347 133.491 142.641 132.976 142.127C132.461 141.612 131.688 141.291 130.722 141.291C129.949 141.291 129.305 141.484 128.79 141.934C128.274 142.319 127.824 142.962 127.502 143.733C127.18 144.504 127.051 145.404 127.051 146.496C127.051 147.588 127.18 148.552 127.502 149.323C127.824 150.094 128.21 150.673 128.79 151.058C129.369 151.444 130.013 151.636 130.722 151.636C131.623 151.636 132.396 151.379 132.911 150.865C133.491 150.351 133.813 149.644 134.006 148.809V148.681H138.321C138.257 150.03 137.87 151.122 137.226 152.086C136.582 153.05 135.681 153.821 134.586 154.399C133.491 154.978 132.139 155.235 130.657 155.235C128.983 155.235 127.502 154.849 126.214 154.142V154.207Z" fill="white"/>
<path d="M140.64 132.295H145.212V141.034H145.277C145.727 140.006 146.371 139.171 147.273 138.657C148.175 138.078 149.205 137.821 150.493 137.821C151.781 137.821 152.747 138.078 153.649 138.657C154.55 139.171 155.194 139.942 155.71 140.906C156.225 141.87 156.418 143.09 156.418 144.44V154.978H151.845V145.339C151.845 144.183 151.588 143.219 151.008 142.576C150.429 141.934 149.656 141.548 148.625 141.548C147.981 141.548 147.337 141.677 146.887 141.998C146.371 142.319 145.985 142.769 145.727 143.347C145.47 143.926 145.341 144.568 145.341 145.275V154.913H140.768V132.295H140.64Z" fill="white"/>
<path d="M64.3886 164.423H69.8627L76.3029 180.68H76.3673L82.8074 164.423H88.2815V187.041H84.031V171.748H81.8414L86.6071 165.066L77.7841 187.106H74.8216L65.9987 165.066L70.7643 171.748H68.5747V187.041H64.3242V164.423H64.3886Z" fill="white"/>
<path d="M94.9149 186.334C93.6912 185.628 92.7252 184.6 92.0812 183.314C91.4372 182.029 91.0508 180.487 91.0508 178.688C91.0508 176.889 91.3728 175.347 92.0812 173.997C92.7252 172.712 93.6912 171.684 94.9149 170.977C96.1385 170.271 97.5553 169.885 99.2297 169.885C100.904 169.885 102.321 170.206 103.48 170.913C104.704 171.62 105.605 172.584 106.249 173.869C106.893 175.154 107.216 176.632 107.216 178.303V179.716H93.3048V176.825H105.026L102.836 179.523V177.724C102.836 176.76 102.707 175.925 102.385 175.282C102.063 174.64 101.677 174.126 101.097 173.805C100.518 173.483 99.9382 173.291 99.2297 173.291C98.5213 173.291 97.8773 173.483 97.3621 173.805C96.7825 174.126 96.3961 174.64 96.0741 175.347C95.7521 175.989 95.6233 176.825 95.6233 177.788V179.588C95.6233 180.487 95.7521 181.323 96.0741 181.965C96.3961 182.608 96.8469 183.122 97.4265 183.507C98.0061 183.828 98.7145 184.021 99.4873 184.021C100.131 184.021 100.647 183.893 101.097 183.7C101.548 183.507 101.935 183.25 102.257 182.929C102.579 182.608 102.772 182.286 102.836 182.029L107.022 181.965V182.158C106.829 182.8 106.636 183.379 106.249 184.021C105.863 184.664 105.412 185.242 104.768 185.756C104.124 186.27 103.416 186.72 102.514 187.041C101.613 187.363 100.582 187.491 99.3585 187.491C97.6197 187.491 96.1385 187.17 94.9149 186.399V186.334Z" fill="white"/>
<path d="M113.333 185.949C114.543 185.949 115.523 184.971 115.523 183.764C115.523 182.558 114.543 181.58 113.333 181.58C112.124 181.58 111.144 182.558 111.144 183.764C111.144 184.971 112.124 185.949 113.333 185.949Z" fill="white"/>
</g>
<defs>
<clipPath id="clip0_612_6472">
<rect width="199" height="199" fill="white" transform="translate(47 46)"/>
</clipPath>
</defs>
</svg>
